<svg xmlns="http://www.w3.org/2000/svg" xmlns:xlink="http://www.w3.org/1999/xlink" fill="none" version="1.1" width="17" height="18" viewBox="0 0 17 18"><g><path d="M1.31812,18L5.14723,18C5.52295,18,5.82887,17.7002,5.82887,17.3305C5.82887,16.9608,5.525,16.661,5.14723,16.661L1.35918,16.661L1.35918,6.11744L8.45278,1.34676L15.6367,6.3721L15.6367,9.71548C15.6367,10.0851,15.9406,10.385,16.3184,10.385C16.6941,10.385,17,10.0851,17,9.71548L17,6.34746C17,5.92851,16.7926,5.5342,16.4457,5.29187L9.2186,0.23983C8.76896,-0.0743821,8.16329,-0.080543,7.70749,0.225454L0.572831,5.02489C0.213532,5.26722,0.00000532583,5.66564,0.00000532583,6.09485L0.00000532583,16.7041C-0.00204778,17.4188,0.589256,18,1.31812,18ZM15.4581,14.595L8.31317,14.595C7.95181,14.595,7.65616,14.2993,7.65616,13.9378C7.65616,13.5764,7.95181,13.2807,8.31317,13.2807L15.4581,13.2807C15.8194,13.2807,16.1151,13.5764,16.1151,13.9378C16.1151,14.2993,15.8194,14.595,15.4581,14.595ZM13.2612,17.8295C13.1011,17.8295,12.9389,17.77,12.8136,17.6529C12.5488,17.4044,12.5344,16.9896,12.7829,16.7247L15.4252,13.8968L12.6473,11.1736C12.3886,10.9189,12.3845,10.5041,12.6391,10.2433C12.8937,9.98451,13.3085,9.9804,13.5692,10.2351L16.8029,13.408C17.0575,13.6585,17.0657,14.0652,16.8234,14.326L13.7437,17.6221C13.6123,17.7597,13.4358,17.8295,13.2612,17.8295Z" fill="#38675C" fill-opacity="1"/></g></svg>